<?xml version="1.0" encoding="utf-8"?>
<svg viewBox="95.809 88.024 293.412 280.838" xmlns="http://www.w3.org/2000/svg">
  <path d="M 144.72 247.711 L 176.288 245.733 Q 177.313 253.423 180.462 257.452 Q 185.589 263.97 195.111 263.97 Q 202.215 263.97 206.061 260.638 Q 209.906 257.305 209.906 252.911 Q 209.906 248.736 206.244 245.44 Q 202.582 242.144 189.251 239.214 Q 167.425 234.307 158.124 226.177 Q 148.749 218.047 148.749 205.45 Q 148.749 197.173 153.546 189.813 Q 158.343 182.452 167.975 178.24 Q 177.606 174.029 194.378 174.029 Q 214.959 174.029 225.763 181.683 Q 236.566 189.337 238.617 206.036 L 207.342 207.867 Q 206.097 200.616 202.105 197.32 Q 198.114 194.024 191.083 194.024 Q 185.296 194.024 182.367 196.478 Q 179.437 198.931 179.437 202.447 Q 179.437 205.01 181.854 207.061 Q 184.198 209.185 192.987 211.016 Q 214.74 215.704 224.151 220.501 Q 233.563 225.298 237.848 232.403 Q 242.132 239.507 242.132 248.296 Q 242.132 258.624 236.419 267.339 Q 230.707 276.055 220.453 280.56 Q 210.199 285.064 194.598 285.064 Q 167.206 285.064 156.659 274.517 Q 146.112 263.97 144.72 247.711 Z M 244.755 247.711 L 276.322 245.733 Q 277.348 253.423 280.497 257.452 Q 285.624 263.97 295.146 263.97 Q 302.25 263.97 306.095 260.638 Q 309.941 257.305 309.941 252.911 Q 309.941 248.736 306.278 245.44 Q 302.616 242.144 289.286 239.214 Q 267.46 234.307 258.158 226.177 Q 248.783 218.047 248.783 205.45 Q 248.783 197.173 253.581 189.813 Q 258.378 182.452 268.009 178.24 Q 277.641 174.029 294.413 174.029 Q 314.994 174.029 325.797 181.683 Q 336.601 189.337 338.651 206.036 L 307.377 207.867 Q 306.132 200.616 302.14 197.32 Q 298.149 194.024 291.117 194.024 Q 285.331 194.024 282.401 196.478 Q 279.472 198.931 279.472 202.447 Q 279.472 205.01 281.889 207.061 Q 284.233 209.185 293.022 211.016 Q 314.775 215.704 324.186 220.501 Q 333.598 225.298 337.882 232.403 Q 342.167 239.507 342.167 248.296 Q 342.167 258.624 336.454 267.339 Q 330.741 276.055 320.487 280.56 Q 310.233 285.064 294.633 285.064 Q 267.24 285.064 256.693 274.517 Q 246.147 263.97 244.755 247.711 Z" style="fill: rgb(239, 89, 26); white-space: pre;"/>
</svg>